<svg xmlns="http://www.w3.org/2000/svg" version="1.1" viewBox="-5.0 -10.0 110.0 135.0">

<style type="text/css">
  text { display: none; }
  path { fill: #D6318A; }
</style>

 <path d="m89.98 53.262c-0.019531-0.10156-0.039063-0.17969-0.070313-0.26953 0-0.019532 0-0.03125-0.019531-0.050782v-0.019531h-0.011719l-9.2617-23.129h3.1289c2.0195 0 3.6602-1.6406 3.6602-3.6484v-0.12109c0-0.82813-0.67188-1.5-1.5-1.5s-1.5 0.67187-1.5 1.5v0.12109c0 0.35938-0.28906 0.64844-0.66016 0.64844h-27.391c-0.33984-1.4492-1.1719-2.7188-2.3086-3.6211v-3.25c0-2.2305-1.8203-4.0508-4.0508-4.0508-2.2305 0-4.0508 1.8203-4.0508 4.0508v3.25c-1.1406 0.89844-1.9688 2.1719-2.3086 3.6211h-27.391c-0.37109 0-0.66016-0.28906-0.66016-0.64844v-0.12109c0-0.82813-0.67188-1.5-1.5-1.5-0.82813 0-1.5 0.67187-1.5 1.5v0.12109c0 2.0117 1.6406 3.6484 3.6602 3.6484h3.1289l-9.2617 23.121-0.011719 0.03125c-0.011718 0.019532-0.011718 0.03125-0.019531 0.050782-0.03125 0.089844-0.050781 0.17188-0.070312 0.26172 0 0.039063 0 0.078126-0.011719 0.12109 0 0.050782-0.011719 0.089844-0.011719 0.12891 0 6.3906 5.1992 11.59 11.59 11.59s11.602-5.1992 11.602-11.59c0-0.039062-0.011719-0.078124-0.011719-0.12891-0.011719-0.039062-0.011719-0.078125-0.011719-0.12109-0.019531-0.089843-0.039062-0.17187-0.070312-0.26172 0-0.019532 0-0.03125-0.019532-0.050782v-0.019531l-0.011718-0.011719-9.2617-23.121h19.828c0.33984 1.4609 1.1719 2.7305 2.3086 3.6289v34.559h-3.6719c-2.0391 0-3.7891 1.3789-4.2695 3.3594l-1.7695 7.3789c-0.30859 1.3203-0.011719 2.6797 0.82031 3.7383 0.83984 1.0586 2.0898 1.6719 3.4492 1.6719h18.988c1.3516 0 2.6016-0.60938 3.4414-1.6719 0.82812-1.0586 1.1289-2.4219 0.82031-3.7383l-1.7695-7.3789c-0.48047-1.9805-2.2305-3.3594-4.2695-3.3594h-3.6719v-34.559c1.1406-0.89844 1.9688-2.1719 2.3086-3.6289h19.828l-9.2617 23.121-0.011719 0.03125c-0.011719 0.019532-0.011719 0.03125-0.019531 0.050782-0.03125 0.089844-0.050782 0.17188-0.058594 0.26953-0.011719 0.03125-0.011719 0.070313-0.019531 0.10938 0 0.039062-0.011719 0.089844-0.011719 0.12891 0 6.3906 5.1992 11.59 11.602 11.59 6.3984 0 11.59-5.1992 11.59-11.59 0-0.039062-0.011718-0.089844-0.011718-0.12891-0.011719-0.039062-0.011719-0.078125-0.011719-0.10938zm-68.391 8.8281c-4.2188 0-7.75-3.0586-8.4609-7.0898h16.93c-0.71094 4.0312-4.2383 7.0898-8.4688 7.0898zm7.8789-10.09h-15.75l7.8711-19.672zm19.48-32.078c0-0.57812 0.46875-1.0508 1.0508-1.0508 0.57812 0 1.0508 0.46875 1.0508 1.0508v1.9297c-0.33984-0.058593-0.69141-0.10156-1.0508-0.10156s-0.71094 0.039062-1.0508 0.10156zm1.0508 4.8281c1.9492 0 3.5391 1.5898 3.5391 3.5391 0 1.9492-1.5898 3.5508-3.5391 3.5508s-3.5391-1.5898-3.5391-3.5508c0-1.9609 1.5898-3.5391 3.5391-3.5391zm1.0508 9.9883v33.238h-2.1016v-33.238c0.33984 0.058594 0.69141 0.10156 1.0508 0.10156s0.71094-0.039063 1.0508-0.10156zm6.668 36.242c0.64844 0 1.1992 0.44141 1.3516 1.0586l1.7695 7.3789c0.10156 0.42188 0 0.85156-0.26172 1.1797-0.26172 0.33984-0.66016 0.53125-1.0781 0.53125h-18.988c-0.42969 0-0.82812-0.19141-1.0898-0.53125-0.26953-0.32812-0.35938-0.76172-0.26172-1.1797l1.7695-7.3789c0.14844-0.62109 0.69922-1.0586 1.3516-1.0586h15.441zm20.691-38.652 7.8711 19.672h-15.75zm0 29.762c-4.2305 0-7.7617-3.0586-8.4688-7.0898h16.93c-0.71094 4.0312-4.2383 7.0898-8.4609 7.0898z"/>
<text x="0.0" y="117.5" font-size="5.0" font-weight="bold" font-family="Arbeit Regular, Helvetica, Arial-Unicode, Arial, Sans-serif" fill="#000000">Created by Kosong Tujuh</text><text x="0.0" y="122.5" font-size="5.0" font-weight="bold" font-family="Arbeit Regular, Helvetica, Arial-Unicode, Arial, Sans-serif" fill="#000000">from Noun Project</text></svg>