<svg xmlns="http://www.w3.org/2000/svg" version="1.1" viewBox="-5.0 -10.0 110.0 135.0">

<style type="text/css">
  text { display: none; }
  path { fill: #D6318A; }
</style>

 <path d="m12.812 79.406c-0.15625 1.8867-3.0234 1.6523-2.8672-0.23438l0.60547-7.3203c0.066407-0.79297 0.76172-1.3828 1.5547-1.3164l7.3203 0.60547c1.8867 0.15625 1.6523 3.0234-0.23438 2.8672l-4.4766-0.37109c12.359 18.508 37.105 24.383 56.539 13.16v0.003906c3.1836-1.9102 5.5234-3.582 8.2031-6.1562 1.3633-1.3125 3.3516 0.76172 1.9922 2.0703-2.6172 2.5117-5.5781 4.7305-8.7578 6.5664v0.003906c-20.352 11.746-46.172 5.9766-59.625-12.977zm41.414-3.0625c-2.3047-1.7305-3.9961-3.9062-5.3555-6.3281-17.188-0.96484-25.277-21.938-13.035-34.18 11.887-11.887 32.211-4.6523 34.09 11.887 1.3359-1.5273 2.9766-2.9102 4.7422-4.0391-2.6836-10.504-6.0078-5.3086-0.64062-12.598l-5.0938-5.0938c-5.9531 4.3828-2.9727 3.0742-9.1836 0.49609v-0.003906c-6.2031-2.5703-5.0234 0.47266-6.1367-6.8398h-7.1992l-0.65234 4.293c-0.23438 1.5742-2.2344 1.1562-5.4141 2.5234-6.2383 2.6758-3.4336 3.8125-9.2539-0.46875l-5.0938 5.0938c4.4648 6.0664 2.9922 2.9531 0.52734 9.1133-2.5312 6.3164 0.30469 5.1172-6.8711 6.2109v7.1992l4.293 0.65234c1.5703 0.23438 1.1562 2.2266 2.5234 5.4141 2.6719 6.2422 3.8203 3.4258-0.46875 9.25l5.0938 5.0938c5.9531-4.3828 2.9727-3.0742 9.1836-0.49609v0.003906c6.2031 2.5703 5.0273-0.47266 6.1367 6.8398h7.1992zm23.023-34.117c-0.67188-2.3516-1.6562-4.6289-2.9023-6.7148l2.6758-3.6367c0.47656-0.56641 0.44922-1.4141-0.082032-1.9453l-6.8398-6.8398-0.003906 0.003906c-0.49219-0.49219-1.2852-0.56641-1.8633-0.14453l-3.7148 2.7344c-1.1719-0.69922-2.3945-1.3164-3.6641-1.8438v0.003906l-3.8867-1.2891-0.68359-4.5039c-0.078125-0.71875-0.69141-1.2773-1.4297-1.2773l-9.6758-0.003907c-0.69922 0-1.3164 0.51172-1.4219 1.2266l-0.69141 4.5547c-2.6602 0.67188-5.2031 1.7266-7.5508 3.1289l-3.6367-2.6758c-0.56641-0.47656-1.4141-0.44922-1.9453 0.082032l-6.8398 6.8398 0.003906 0.003907c-0.49219 0.49219-0.56641 1.2852-0.14453 1.8633l2.7344 3.7148c-1.3984 2.3438-2.457 4.8906-3.1289 7.5508l-4.5039 0.68359c-0.71875 0.078124-1.2773 0.69141-1.2773 1.4297v9.6719c0 0.69922 0.51172 1.3164 1.2266 1.4219l4.5547 0.69141c0.67188 2.6562 1.7305 5.2031 3.1289 7.5508l-2.6758 3.6367c-0.47656 0.56641-0.44922 1.4102 0.082031 1.9453l6.8398 6.8398 0.003906-0.003907c0.49219 0.49219 1.2852 0.56641 1.8633 0.14453l3.7148-2.7344c1.1719 0.69922 2.3945 1.3164 3.6641 1.8438v-0.003907l3.8867 1.2891 0.68359 4.5039c0.078125 0.71875 0.69141 1.2773 1.4297 1.2773h9.6719c0.69922 0 1.3164-0.51172 1.4219-1.2266l0.61328-4.0352c3.4922 1.75 8.1172 2.668 14.434 2.3281 0.67578-0.035156 1.2188-0.52734 1.3398-1.1641 0.14062-0.73047 0.25781-1.4531 0.35156-2.1719 30.66 0.21094 13.285-29.914 21.691-35.703 1.2109-0.83594 0.60547-2.6094-0.75391-2.6367-5.6094-0.10938-11.648 1.0664-16.699 3.5898zm-10.172 9.8672c-0.33203 0.72266-0.61719 1.4766-0.85156 2.2578-6.8203-7.168-16.926-9.6328-27.238-8.8867-1.25 0.089844-1.8125 1.6289-0.84766 2.5156 4.6602 4.2695 6.5391 12.91 9.2266 19.004-13.773-2.1289-19.445-19.152-9.4922-29.105 10.785-10.785 29.301-3.1094 29.301 12.137zm-1.1602 6.3477c-5.9883-7.3438-13.699-10.32-23.746-10.234 8.2383 10.906 5.1875 29.301 26.797 29.301-3.2617-6.0391-8.7188-11.367-14.629-15.879-1.4961-1.1445 0.24609-3.4258 1.7422-2.2852 5.668 4.3281 10.812 9.2969 14.289 14.875 0.29688-5.7891-1.1328-11.281-4.4531-15.777zm7.3438 15.668c24.84-0.019531 12.082-22.582 17.461-32.52-5.1602 0.36328-10.43 1.8711-14.578 4.5625-3.9492 2.5625-6.8633 6.2227-7.6094 11.008 1.6836 2.3789 2.9414 5.0469 3.7422 7.9375 1.8945-5.5391 4.2031-10.906 9.1406-15.512 1.3828-1.2891 3.3438 0.8125 1.957 2.1016-5.3516 4.9883-7.3828 11.227-9.4414 17.547-1.0742 3.3008-0.51953 1.2578-0.67188 4.875zm-65.574-20.41c0.16406 1.8867-2.707 2.1367-2.8672 0.24609-2.7031-31.285 26.539-55.883 56.93-47.738 9.9102 2.6562 18.926 8.6523 25.207 17.504 0.16797-2.0352-0.085937-4.5625 1.8086-4.4102 0.79297 0.066407 1.3828 0.76172 1.3164 1.5547l-0.60547 7.3203c-0.066406 0.79297-0.76172 1.3828-1.5547 1.3164l-7.3203-0.60547c-1.8867-0.15625-1.6523-3.0234 0.23438-2.8672l4.4727 0.37109c-17.922-26.844-58.141-24.469-72.949 3.9531-3.7227 7.1484-5.3711 15.266-4.6719 23.355z" fill-rule="evenodd"/>
<text x="0.0" y="117.5" font-size="5.0" font-weight="bold" font-family="Arbeit Regular, Helvetica, Arial-Unicode, Arial, Sans-serif" fill="#000000">Created by Agung Pamuji</text><text x="0.0" y="122.5" font-size="5.0" font-weight="bold" font-family="Arbeit Regular, Helvetica, Arial-Unicode, Arial, Sans-serif" fill="#000000">from Noun Project</text></svg>