<svg xmlns="http://www.w3.org/2000/svg" version="1.1" viewBox="-5.0 -10.0 110.0 135.0">

<style type="text/css">
  text { display: none; }
  path { fill: #D6318A; }
</style>

 <g>
  <path d="m50 10.789c-16.156 0-29.301 13.145-29.301 29.301s13.145 29.301 29.301 29.301 29.301-13.145 29.301-29.301c0-16.16-13.145-29.301-29.301-29.301zm0 53.602c-13.398 0-24.301-10.902-24.301-24.301 0-13.398 10.902-24.301 24.301-24.301s24.301 10.902 24.301 24.301c0 13.398-10.902 24.301-24.301 24.301z"/>
  <path d="m92.438 79.488-12.867-18.383c4.2305-5.9375 6.7305-13.188 6.7305-21.016 0-20.02-16.285-36.301-36.301-36.301s-36.301 16.281-36.301 36.297c0 7.8281 2.5 15.082 6.7305 21.016l-12.867 18.387c-0.52344 0.75-0.59766 1.7227-0.19531 2.5391 0.40625 0.82031 1.2227 1.3516 2.1328 1.3906l11.617 0.5 4.4414 10.746c0.34766 0.84375 1.1289 1.4297 2.0391 1.5312 0.09375 0.007813 0.18359 0.015626 0.27344 0.015626 0.80859 0 1.5781-0.39453 2.0469-1.0664l13.559-19.359c2.1172 0.38672 4.2969 0.59766 6.5234 0.59766s4.4062-0.21094 6.5234-0.59766l13.559 19.359c0.46875 0.67188 1.2383 1.0664 2.0469 1.0664 0.089844 0 0.17969-0.003907 0.27344-0.015626 0.90625-0.10156 1.6875-0.6875 2.0391-1.5312l4.4414-10.746 11.617-0.5c0.91406-0.039063 1.7305-0.57422 2.1328-1.3906 0.40234-0.81641 0.32813-1.7891-0.19531-2.5391zm-64 9.0547-3.3086-8.0078c-0.37109-0.89844-1.2305-1.5-2.2031-1.543l-8.6562-0.375 9.4609-13.516c3.9961 4.1953 8.9805 7.4336 14.578 9.3438zm21.562-17.152c-17.258 0-31.301-14.039-31.301-31.301 0-17.262 14.043-31.301 31.301-31.301s31.301 14.039 31.301 31.297c0 17.262-14.043 31.305-31.301 31.305zm27.07 7.6016c-0.97266 0.042968-1.832 0.64453-2.2031 1.543l-3.3086 8.0078-9.8711-14.098c5.5977-1.9102 10.582-5.1484 14.578-9.3438l9.4609 13.516z"/>
  <path d="m69.203 35.293c-0.60547-1.8633-2.1875-3.1836-4.1289-3.4492l-7.3242-1.0234-3.1953-6.6172c-0.85156-1.7656-2.5938-2.8633-4.5547-2.8633s-3.7031 1.0977-4.5547 2.8594l-3.2383 6.6523-7.2812 0.99219c-1.9414 0.26562-3.5234 1.5859-4.125 3.4492-0.60547 1.8633-0.10156 3.8594 1.3125 5.2148l5.3242 5.1328-1.3047 7.2344c-0.34766 1.9258 0.41797 3.8398 2.0039 4.9922 1.5859 1.1523 3.6406 1.2891 5.3672 0.36328l6.5234-3.4805 6.4766 3.4766c0.75781 0.40625 1.5781 0.60938 2.3984 0.60938 1.043 0 2.0781-0.32813 2.9688-0.97266 1.5859-1.1523 2.3516-3.0625 2.0039-4.9922l-1.2891-7.2852 5.3125-5.082c1.4062-1.3516 1.9102-3.3477 1.3047-5.2109zm-5.9219 2.7031-4.1602 3.9805c-1.2305 1.1758-1.7812 2.8789-1.4766 4.5508l1.0234 5.6641c0.11719 0.64062-0.55469 1.1328-1.1289 0.83203l-5.1445-2.6797c-1.5-0.80469-3.2891-0.80469-4.7891 0l-5.1445 2.6797c-0.57422 0.30078-1.2461-0.19141-1.1289-0.83203l1.0234-5.6641c0.30078-1.668-0.25391-3.3789-1.4805-4.5508l-4.1602-3.9805c-0.46875-0.44922-0.21875-1.2422 0.42578-1.3359l5.7383-0.85547c1.6875-0.23047 3.1328-1.2812 3.8711-2.8125l2.5703-5.2148c0.28906-0.58203 1.1211-0.57812 1.4023 0.003906l2.5156 5.207c0.73828 1.5312 2.1875 2.5859 3.875 2.8164l5.7383 0.85547c0.64844 0.097656 0.89844 0.88672 0.42969 1.3359z"/>
 </g>
<text x="0.0" y="117.5" font-size="5.0" font-weight="bold" font-family="Arbeit Regular, Helvetica, Arial-Unicode, Arial, Sans-serif" fill="#000000">Created by ArashDesign</text><text x="0.0" y="122.5" font-size="5.0" font-weight="bold" font-family="Arbeit Regular, Helvetica, Arial-Unicode, Arial, Sans-serif" fill="#000000">from Noun Project</text></svg>