<svg xmlns="http://www.w3.org/2000/svg" data-name="Layer 1" viewBox="0 0 100 125" x="0px" y="0px">

<style type="text/css">
  text { display: none; }
  path { fill: #D6318A; }
</style>

<path d="M22.919,55.33A17.919,17.919,0,1,0,40.837,73.248,17.939,17.939,0,0,0,22.919,55.33Zm0,2.151A15.759,15.759,0,0,1,35.827,82.292,14.182,14.182,0,0,0,23.589,74.1a5.9,5.9,0,1,0-1.341,0,14.161,14.161,0,0,0-12.237,8.192A15.758,15.758,0,0,1,22.919,57.481Zm-3.748,10.76a3.748,3.748,0,1,1,3.748,3.747A3.752,3.752,0,0,1,19.171,68.241Zm3.748,20.774a15.723,15.723,0,0,1-11.36-4.844,12.1,12.1,0,0,1,22.72,0A15.72,15.72,0,0,1,22.919,89.015ZM77.081,55.33A17.919,17.919,0,1,0,95,73.248,17.938,17.938,0,0,0,77.081,55.33Zm0,2.151A15.758,15.758,0,0,1,89.989,82.292,14.18,14.18,0,0,0,77.751,74.1a5.9,5.9,0,1,0-1.34,0,14.164,14.164,0,0,0-12.238,8.192A15.759,15.759,0,0,1,77.081,57.481Zm-3.747,10.76a3.748,3.748,0,1,1,3.747,3.747A3.751,3.751,0,0,1,73.334,68.241Zm3.747,20.774a15.72,15.72,0,0,1-11.359-4.844,12.1,12.1,0,0,1,22.72,0A15.722,15.722,0,0,1,77.081,89.015ZM50,44.266A17.919,17.919,0,1,0,32.082,26.347,17.939,17.939,0,0,0,50,44.266Zm0-2.152A15.724,15.724,0,0,1,38.64,37.27a12.1,12.1,0,0,1,22.721,0A15.724,15.724,0,0,1,50,42.114ZM46.253,21.34A3.747,3.747,0,1,1,50,25.087,3.752,3.752,0,0,1,46.253,21.34ZM50,10.58A15.759,15.759,0,0,1,62.908,35.391,14.181,14.181,0,0,0,50.67,27.2a5.9,5.9,0,1,0-1.341,0,14.157,14.157,0,0,0-12.237,8.192A15.759,15.759,0,0,1,50,10.58ZM69.127,32.673a1.074,1.074,0,0,1,1.514-.14A32.331,32.331,0,0,1,81.349,49.458l.739-1.281a1.076,1.076,0,0,1,1.863,1.076L81.8,52.979l0,0a1.044,1.044,0,0,1-.071.107l-.025.031c-.02.024-.04.047-.062.069l-.027.028a1.018,1.018,0,0,1-.093.081l-.021.014q-.042.03-.087.057l-.031.017a.93.93,0,0,1-.09.043l-.026.012a1.161,1.161,0,0,1-.122.04l-.009,0c-.031.008-.063.015-.095.021h-.014a1.188,1.188,0,0,1-.158.012h0a1.085,1.085,0,0,1-.17-.015l-.049-.01a1.12,1.12,0,0,1-.123-.033l-.044-.015a1.08,1.08,0,0,1-.15-.071L76.6,51.222a1.076,1.076,0,1,1,1.076-1.864l1.665.962A30.186,30.186,0,0,0,69.267,34.188,1.075,1.075,0,0,1,69.127,32.673Zm-51.059,19.6a32.277,32.277,0,0,1,9.191-17.836H25.743a1.076,1.076,0,1,1,0-2.151h4.3l.039,0c.022,0,.043,0,.065,0l.058.008.045.007.06.014.042.011.055.019a.413.413,0,0,1,.045.017l.046.02.05.025.037.021c.019.011.037.021.054.033l.032.023c.017.013.035.025.052.039l.032.029a.587.587,0,0,1,.046.041c.016.016.03.032.045.049l.025.027v0a.9.9,0,0,1,.064.085l.021.034c.011.019.023.037.033.056s.016.033.024.049.015.031.022.046l.02.056.016.043c.006.021.01.041.015.062s.008.027.011.041.009.057.013.085l0,.019a.977.977,0,0,1,.006.108h0v4.3a1.076,1.076,0,0,1-2.152,0v-1.89a30.125,30.125,0,0,0-8.776,16.84,1.077,1.077,0,0,1-1.061.906,1.118,1.118,0,0,1-.172-.014A1.077,1.077,0,0,1,18.068,52.271ZM61.832,86.4a1.076,1.076,0,0,1-.636,1.382,32.489,32.489,0,0,1-19.7.863l.761,1.318A1.075,1.075,0,1,1,40.4,91.033l-2.152-3.726c-.007-.013-.013-.027-.02-.04s-.018-.033-.026-.05l-.02-.048c-.006-.017-.013-.033-.019-.05s-.009-.03-.013-.044-.012-.038-.016-.057l-.008-.038c0-.022-.009-.044-.012-.066l0-.031c0-.025-.005-.049-.006-.074v-.028c0-.026,0-.051,0-.077l0-.031c0-.025,0-.049.008-.073s.006-.03.009-.045.008-.039.013-.058v-.006l0-.008a.857.857,0,0,1,.027-.086,1.063,1.063,0,0,1,.044-.1l0,0a1.066,1.066,0,0,1,.424-.452h0l3.726-2.152A1.076,1.076,0,1,1,43.44,85.55l-1.632.942a30.328,30.328,0,0,0,18.642-.733A1.075,1.075,0,0,1,61.832,86.4Z"/><text x="0" y="115" fill="#000000" font-size="5px" font-weight="bold" font-family="'Helvetica Neue', Helvetica, Arial-Unicode, Arial, Sans-serif">Created by adiba</text><text x="0" y="120" fill="#000000" font-size="5px" font-weight="bold" font-family="'Helvetica Neue', Helvetica, Arial-Unicode, Arial, Sans-serif">from the Noun Project</text></svg>