<svg xmlns="http://www.w3.org/2000/svg" data-name="Layer 1" viewBox="0 0 100 125" x="0px" y="0px">

<style type="text/css">
  text { display: none; }
  path { fill: #D6318A; }
</style>

<title>9</title><path d="M88.02942,74.125a7.88361,7.88361,0,1,0-7.88367,7.88379A7.89226,7.89226,0,0,0,88.02942,74.125Zm-12.16773,0a4.28412,4.28412,0,1,1,4.28406,4.28418A4.289,4.289,0,0,1,75.86169,74.125Z"/><path d="M7.952,56.78418a1.7994,1.7994,0,0,0,1.62,1.01562h5.96973a1.7919,1.7919,0,0,0,.56054-.08886,1.78139,1.78139,0,0,0,.55958.08886H39.37134A1.79952,1.79952,0,0,0,41.171,56V45.65674c.86426.89941,1.9668,2.04687,3.37488,3.51221a5.73931,5.73931,0,0,0,3.64648,1.9541,5.39358,5.39358,0,0,0,4.15515-1.40625L64.06909,38.96631a5.39915,5.39915,0,0,0-7.30469-7.95264L49.4707,37.708l-2.64062-3.58594a12.29219,12.29219,0,0,0-9.85816-4.98193H18.89221a10.68649,10.68649,0,0,0-10.1239,7.1997L5.47644,47.24414a5.36725,5.36725,0,0,0,.06543,4.56006Zm.827-8.103a1.90347,1.90347,0,0,0,.10645-.271L12.2019,37.4209a7.03838,7.03838,0,0,1,6.69031-4.68115H36.97192a8.67861,8.67861,0,0,1,6.95972,3.51757l3.83008,5.2002a1.79969,1.79969,0,0,0,2.666.25879L59.198,33.666a1.84621,1.84621,0,0,1,1.29-.46778,1.7983,1.7983,0,0,1,1.14648,3.11524L49.90332,47.07422a1.78128,1.78128,0,0,1-1.3584.46631c-.42676-.04639-.65137-.13526-1.44531-.90772,0,0-6.15711-6.40869-6.38171-6.647a1.79941,1.79941,0,0,0-3.14637,1.19385V54.2002h-19.11V45.58984a1.79975,1.79975,0,1,0-3.59949,0V54.2002H10.70093l-1.916-3.9585A1.77975,1.77975,0,0,1,8.77905,48.68115Z"/><path d="M50.002,82.36621c-7.36523,0-13.4956,4.582-14.6571,10.57037A1.73253,1.73253,0,0,0,37.04175,95h.14892A1.763,1.763,0,0,0,38.894,93.53656c.87378-4.288,5.52246-7.57074,11.10791-7.57074,5.58448,0,10.2323,3.28272,11.106,7.57074A1.76274,1.76274,0,0,0,62.811,95h.149a1.7327,1.7327,0,0,0,1.697-2.06335C63.49585,86.9483,57.36621,82.36621,50.002,82.36621Z"/><path d="M65.48975,92.93658A1.7326,1.7326,0,0,0,67.18677,95h.14892a1.76274,1.76274,0,0,0,1.70313-1.46344c.87378-4.288,5.5227-7.57074,11.10791-7.57074,5.58447,0,10.23242,3.28272,11.10608,7.57074A1.76283,1.76283,0,0,0,92.95593,95H93.105a1.73258,1.73258,0,0,0,1.697-2.06335c-1.16137-5.98835-7.29089-10.57044-14.65527-10.57044C72.78162,82.36621,66.65112,86.94824,65.48975,92.93658Z"/><path d="M28.01514,26.12158A9.28,9.28,0,1,0,18.735,16.8418,9.29028,9.29028,0,0,0,28.01514,26.12158Zm0-14.96045a5.68042,5.68042,0,1,1-5.68067,5.68067A5.68729,5.68729,0,0,1,28.01514,11.16113Z"/><path d="M27.73975,74.125a7.88367,7.88367,0,1,0-7.88367,7.88379A7.89234,7.89234,0,0,0,27.73975,74.125Zm-12.16773,0a4.28406,4.28406,0,1,1,4.28406,4.28418A4.28893,4.28893,0,0,1,15.572,74.125Z"/><path d="M5.20093,92.93665A1.73258,1.73258,0,0,0,6.898,95h.14893A1.76274,1.76274,0,0,0,8.75,93.53656c.87378-4.288,5.52161-7.57074,11.10608-7.57074,5.58533,0,10.23328,3.28272,11.10693,7.57074A1.763,1.763,0,0,0,32.66626,95h.14893a1.73261,1.73261,0,0,0,1.697-2.06342c-1.16162-5.98834-7.29175-10.57037-14.65613-10.57037S6.36218,86.9483,5.20093,92.93665Z"/><path d="M50.001,66.24121A7.88379,7.88379,0,1,0,57.88452,74.125,7.89226,7.89226,0,0,0,50.001,66.24121Zm0,12.168A4.28418,4.28418,0,1,1,54.285,74.125,4.289,4.289,0,0,1,50.001,78.40918Z"/><path d="M93.2002,5H43.959a1.79981,1.79981,0,0,0,0,3.59961H91.40039V53.73193H59.95874a1.79981,1.79981,0,0,0,0,3.59961H93.2002A1.79962,1.79962,0,0,0,95,55.53174V6.7998A1.79962,1.79962,0,0,0,93.2002,5Z"/></svg>